<?xml version="1.0" encoding="utf-8"?>
<!-- Generator: Adobe Illustrator 22.0.0, SVG Export Plug-In . SVG Version: 6.00 Build 0)  -->
<svg version="1.1" id="Layer_1" xmlns="http://www.w3.org/2000/svg" xmlns:xlink="http://www.w3.org/1999/xlink" x="0px" y="0px"
	 viewBox="0 0 85.9 76.9" style="enable-background:new 0 0 85.9 76.9;" xml:space="preserve">
<style type="text/css">
	.st0{fill:#F6D40B;}
	.st1{fill:#313332;}
	.st2{fill:#F0F2ED;}
</style>
<g>
	<path class="st0" d="M56.8,40.2c0-8.5-6.9-15.4-15.4-15.4c-8.5,0-15.4,6.9-15.4,15.4c0,3.4,1.1,6.7,3.2,9.4c0,0,0,0,0,0
		c4.4,6.1,3.3,9,3.3,9c0,0.1-0.1,0.4-0.1,0.4s0.1,0.7,0.5,0.9c0.1,0.1,0.3,0.1,0.4,0.1c0.3,0,13.4,0.2,15.9,0c0,0,0.1,0,0.1,0
		c0.2,0,0.3,0,0.3-0.1c0.2-0.1,0.7-0.9,0.7-0.9s-0.1-0.1-0.2-0.4c0,0-1.2-3,3.3-9.1C55.7,46.9,56.8,43.7,56.8,40.2z"/>
</g>
<path class="st1" d="M47.1,61.6c0,0-10,0-10.5,0c-0.5,0-1,0.3-1,0.8v2c0,0.3,0.2,0.6,0.6,0.7l5.3,1.9c0.1,0,0.3,0.1,0.4,0.1
	c0.1,0,0.3,0,0.4-0.1l5.3-1.9c0.3-0.1,0.6-0.4,0.6-0.7v-1.9C48.1,62,47.7,61.6,47.1,61.6z"/>
<g>
	<path class="st0" d="M18.8,43.9H9.9c-0.6,0-1.2-0.5-1.2-1.2c0-0.6,0.5-1.2,1.2-1.2h8.9c0.6,0,1.2,0.5,1.2,1.2
		C19.9,43.4,19.4,43.9,18.8,43.9z"/>
	<path class="st0" d="M17,61.9c-0.4,0-0.7-0.2-0.9-0.5c-0.4-0.5-0.2-1.2,0.3-1.6l7.3-5.1c0.5-0.4,1.2-0.2,1.6,0.3
		c0.4,0.5,0.2,1.2-0.3,1.6l-7.3,5.1C17.5,61.8,17.2,61.9,17,61.9z"/>
	<path class="st0" d="M22.6,29.9c-0.3,0-0.5-0.1-0.8-0.3l-6.8-5.8c-0.5-0.4-0.5-1.2-0.1-1.6c0.4-0.5,1.1-0.5,1.6-0.1l6.8,5.8
		c0.5,0.4,0.5,1.1,0.1,1.6C23.2,29.7,22.9,29.9,22.6,29.9z"/>
	<path class="st0" d="M35.5,20.9c-0.5,0-1-0.4-1.1-0.9l-2-8.7c-0.1-0.6,0.2-1.2,0.9-1.4c0.6-0.1,1.2,0.2,1.4,0.9l2,8.7
		c0.1,0.6-0.3,1.2-0.9,1.4C35.7,20.9,35.6,20.9,35.5,20.9z"/>
	<path class="st0" d="M51.3,20.9c-0.1,0-0.2,0-0.3,0c-0.6-0.1-1-0.8-0.9-1.4l2-8.7c0.1-0.6,0.8-1,1.4-0.9c0.6,0.1,1,0.8,0.9,1.4
		l-2,8.7C52.3,20.5,51.8,20.9,51.3,20.9z"/>
	<g>
		<path class="st0" d="M72.8,43.9h-8.9c-0.6,0-1.2-0.5-1.2-1.2c0-0.6,0.5-1.2,1.2-1.2h8.9c0.6,0,1.2,0.5,1.2,1.2
			C74,43.4,73.5,43.9,72.8,43.9z"/>
		<path class="st0" d="M67.7,61.1c-0.2,0-0.5-0.1-0.7-0.2l-7.3-5.1c-0.5-0.4-0.7-1.1-0.3-1.6c0.4-0.5,1.1-0.6,1.6-0.3l7.3,5.1
			c0.5,0.4,0.6,1.1,0.3,1.6C68.5,61,68.1,61.1,67.7,61.1z"/>
		<path class="st0" d="M62.2,29.9c-0.3,0-0.7-0.1-0.9-0.4c-0.4-0.5-0.4-1.2,0.1-1.6l6.8-5.8c0.5-0.4,1.2-0.4,1.6,0.1
			c0.4,0.5,0.4,1.2-0.1,1.6l-6.8,5.8C62.7,29.8,62.5,29.9,62.2,29.9z"/>
	</g>
</g>
<g>
	<path class="st2" d="M-173.4,10.2c0,27.5-22.3,49.7-49.7,49.7c-27.5,0-49.7-22.3-49.7-49.7c0-27.5,22.3-49.7,49.7-49.7
		C-195.7-39.5-173.4-17.3-173.4,10.2z"/>
</g>
</svg>
